HIERARCHY
ROOT hip
{
  OFFSET 0 90.174 2.4664
  CHANNELS 6 Xposition Yposition Zposition Zrotation Xrotation Yrotation
  JOINT abdomen
  {
    OFFSET 0 -1.186 -1.5018
    CHANNELS 6 Xposition Yposition Zposition Zrotation Xrotation Yrotation
    JOINT abdomen2
    {
      OFFSET 0 9.964 0.2134
      CHANNELS 6 Xposition Yposition Zposition Zrotation Xrotation Yrotation
      JOINT chest
      {
        OFFSET 0 13.134 -3.2573
        CHANNELS 6 Xposition Yposition Zposition Zrotation Xrotation Yrotation
        JOINT neck
        {
          OFFSET 0 20.686 -1.6905
          CHANNELS 6 Xposition Yposition Zposition Zrotation Xrotation Yrotation
          JOINT head
          {
            OFFSET 0 7.238 -0.1237
            CHANNELS 6 Xposition Yposition Zposition Zrotation Xrotation Yrotation
            End Site
            {
              OFFSET 0 0 0
            }
          }
        }
        JOINT lCollar
        {
          OFFSET 1.7069 20.075 5.0056
          CHANNELS 6 Xposition Yposition Zposition Zrotation Xrotation Yrotation
          JOINT lShldr
          {
            OFFSET 13.6458 -0.047 -4.849
            CHANNELS 6 Xposition Yposition Zposition Zrotation Xrotation Yrotation
            JOINT lForeArm
            {
              OFFSET 28.3255 -0.9759 2.2888
              CHANNELS 6 Xposition Yposition Zposition Zrotation Xrotation Yrotation
              JOINT lHand
              {
                OFFSET 22.1583 -0.53 10.8316
                CHANNELS 6 Xposition Yposition Zposition Zrotation Xrotation Yrotation
                JOINT lThumb1
                {
                  OFFSET 0.786 0.112 2.5817
                  CHANNELS 6 Xposition Yposition Zposition Zrotation Xrotation Yrotation
                  JOINT lThumb2
                  {
                    OFFSET 0.3601 -0.878 4.2331
                    CHANNELS 6 Xposition Yposition Zposition Zrotation Xrotation Yrotation
                    JOINT lThumb2_End
                    {
                      OFFSET 1.8127 -1.216 2.2227
                      CHANNELS 6 Xposition Yposition Zposition Zrotation Xrotation Yrotation
                      End Site
                      {
                        OFFSET 0.0181 -0.0122 0.0222
                      }
                    }
                  }
                }
                JOINT lCarpal1
                {
                  OFFSET 0.9571 1.114 1.7695
                  CHANNELS 6 Xposition Yposition Zposition Zrotation Xrotation Yrotation
                  JOINT lIndex1
                  {
                    OFFSET 4.1246 0.487 4.1451
                    CHANNELS 6 Xposition Yposition Zposition Zrotation Xrotation Yrotation
                    JOINT lIndex2
                    {
                      OFFSET 3.4052 -1.454 2.7682
                      CHANNELS 6 Xposition Yposition Zposition Zrotation Xrotation Yrotation
                      JOINT lIndex2_End
                      {
                        OFFSET 1.4531 -1.795 1.2713
                        CHANNELS 6 Xposition Yposition Zposition Zrotation Xrotation Yrotation
                        End Site
                        {
                          OFFSET 0.0145 -0.0179 0.0127
                        }
                      }
                    }
                  }
                  JOINT lMid1
                  {
                    OFFSET 5.6954 0.21 2.1184
                    CHANNELS 6 Xposition Yposition Zposition Zrotation Xrotation Yrotation
                    JOINT lMid2
                    {
                      OFFSET 3.9766 -1.54 2.3863
                      CHANNELS 6 Xposition Yposition Zposition Zrotation Xrotation Yrotation
                      JOINT lMid2_End
                      {
                        OFFSET 1.4042 -1.926 1.125
                        CHANNELS 6 Xposition Yposition Zposition Zrotation Xrotation Yrotation
                        End Site
                        {
                          OFFSET 0.014 -0.0193 0.0113
                        }
                      }
                    }
                  }
                }
                JOINT lCarpal2
                {
                  OFFSET 2.0956 0.66 -0.3894
                  CHANNELS 6 Xposition Yposition Zposition Zrotation Xrotation Yrotation
                  JOINT lRing1
                  {
                    OFFSET 5.0395 -0.09 2.4971
                    CHANNELS 6 Xposition Yposition Zposition Zrotation Xrotation Yrotation
                    JOINT lRing2
                    {
                      OFFSET 3.7921 -1.552 1.4806
                      CHANNELS 6 Xposition Yposition Zposition Zrotation Xrotation Yrotation
                      JOINT lRing2_End
                      {
                        OFFSET 1.4655 -1.808 0.9609
                        CHANNELS 6 Xposition Yposition Zposition Zrotation Xrotation Yrotation
                        End Site
                        {
                          OFFSET 0.0147 -0.0181 0.0096
                        }
                      }
                    }
                  }
                  JOINT lPinky1
                  {
                    OFFSET 4.9141 -1.269 0.3591
                    CHANNELS 6 Xposition Yposition Zposition Zrotation Xrotation Yrotation
                    JOINT lPinky2
                    {
                      OFFSET 3.1477 -1.685 0.8462
                      CHANNELS 6 Xposition Yposition Zposition Zrotation Xrotation Yrotation
                      JOINT lPinky2_End
                      {
                        OFFSET 0.8055 -1.585 0.7955
                        CHANNELS 6 Xposition Yposition Zposition Zrotation Xrotation Yrotation
                        End Site
                        {
                          OFFSET 0.0081 -0.0158 0.008
                        }
                      }
                    }
                  }
                }
              }
            }
          }
        }
        JOINT rCollar
        {
          OFFSET -1.7069 20.075 5.0056
          CHANNELS 6 Xposition Yposition Zposition Zrotation Xrotation Yrotation
          JOINT rShldr
          {
            OFFSET -13.6458 -0.047 -4.849
            CHANNELS 6 Xposition Yposition Zposition Zrotation Xrotation Yrotation
            JOINT rForeArm
            {
              OFFSET -28.3255 -0.9759 2.2888
              CHANNELS 6 Xposition Yposition Zposition Zrotation Xrotation Yrotation
              JOINT rHand
              {
                OFFSET -22.1583 -0.53 10.8316
                CHANNELS 6 Xposition Yposition Zposition Zrotation Xrotation Yrotation
                JOINT rThumb1
                {
                  OFFSET -0.786 0.112 2.5817
                  CHANNELS 6 Xposition Yposition Zposition Zrotation Xrotation Yrotation
                  JOINT rThumb2
                  {
                    OFFSET -0.3601 -0.878 4.2331
                    CHANNELS 6 Xposition Yposition Zposition Zrotation Xrotation Yrotation
                    JOINT rThumb2_End
                    {
                      OFFSET -1.8127 -1.216 2.2227
                      CHANNELS 6 Xposition Yposition Zposition Zrotation Xrotation Yrotation
                      End Site
                      {
                        OFFSET -0.0181 -0.0122 0.0222
                      }
                    }
                  }
                }
                JOINT rCarpal1
                {
                  OFFSET -0.9571 1.114 1.7695
                  CHANNELS 6 Xposition Yposition Zposition Zrotation Xrotation Yrotation
                  JOINT rIndex1
                  {
                    OFFSET -4.1246 0.487 4.1451
                    CHANNELS 6 Xposition Yposition Zposition Zrotation Xrotation Yrotation
                    JOINT rIndex2
                    {
                      OFFSET -3.4052 -1.454 2.7682
                      CHANNELS 6 Xposition Yposition Zposition Zrotation Xrotation Yrotation
                      JOINT rIndex2_End
                      {
                        OFFSET -1.4531 -1.795 1.2713
                        CHANNELS 6 Xposition Yposition Zposition Zrotation Xrotation Yrotation
                        End Site
                        {
                          OFFSET -0.0145 -0.018 0.0127
                        }
                      }
                    }
                  }
                  JOINT rMid1
                  {
                    OFFSET -5.6954 0.21 2.1184
                    CHANNELS 6 Xposition Yposition Zposition Zrotation Xrotation Yrotation
                    JOINT rMid2
                    {
                      OFFSET -3.9766 -1.54 2.3863
                      CHANNELS 6 Xposition Yposition Zposition Zrotation Xrotation Yrotation
                      JOINT rMid2_End
                      {
                        OFFSET -1.4042 -1.926 1.125
                        CHANNELS 6 Xposition Yposition Zposition Zrotation Xrotation Yrotation
                        End Site
                        {
                          OFFSET -0.014 -0.0193 0.0113
                        }
                      }
                    }
                  }
                }
                JOINT rCarpal2
                {
                  OFFSET -2.0956 0.66 -0.3894
                  CHANNELS 6 Xposition Yposition Zposition Zrotation Xrotation Yrotation
                  JOINT rRing1
                  {
                    OFFSET -5.0395 -0.09 2.4971
                    CHANNELS 6 Xposition Yposition Zposition Zrotation Xrotation Yrotation
                    JOINT rRing2
                    {
                      OFFSET -3.7921 -1.552 1.4806
                      CHANNELS 6 Xposition Yposition Zposition Zrotation Xrotation Yrotation
                      JOINT rRing2_End
                      {
                        OFFSET -1.4655 -1.808 0.9609
                        CHANNELS 6 Xposition Yposition Zposition Zrotation Xrotation Yrotation
                        End Site
                        {
                          OFFSET -0.0147 -0.0181 0.0096
                        }
                      }
                    }
                  }
                  JOINT rPinky1
                  {
                    OFFSET -4.9141 -1.269 0.3592
                    CHANNELS 6 Xposition Yposition Zposition Zrotation Xrotation Yrotation
                    JOINT rPinky2
                    {
                      OFFSET -3.1477 -1.685 0.8462
                      CHANNELS 6 Xposition Yposition Zposition Zrotation Xrotation Yrotation
                      JOINT rPinky2_End
                      {
                        OFFSET -0.8055 -1.585 0.7955
                        CHANNELS 6 Xposition Yposition Zposition Zrotation Xrotation Yrotation
                        End Site
                        {
                          OFFSET -0.0081 -0.0158 0.008
                        }
                      }
                    }
                  }
                }
              }
            }
          }
        }
      }
    }
  }
  JOINT lThigh
  {
    OFFSET 8.367 -8.2066 0.5982
    CHANNELS 6 Xposition Yposition Zposition Zrotation Xrotation Yrotation
    JOINT lShin
    {
      OFFSET 2.1923 -43.463 -0.4932
      CHANNELS 6 Xposition Yposition Zposition Zrotation Xrotation Yrotation
      JOINT lFoot
      {
        OFFSET 0.7333 -45.8593 -2.6451
        CHANNELS 6 Xposition Yposition Zposition Zrotation Xrotation Yrotation
        End Site
        {
          OFFSET 2.6618 -4.2699 12.3931
        }
      }
    }
  }
  JOINT rThigh
  {
    OFFSET -8.367 -8.2066 0.5982
    CHANNELS 6 Xposition Yposition Zposition Zrotation Xrotation Yrotation
    JOINT rShin
    {
      OFFSET -2.1923 -43.463 -0.4931
      CHANNELS 6 Xposition Yposition Zposition Zrotation Xrotation Yrotation
      JOINT rFoot
      {
        OFFSET -0.7333 -45.8593 -2.6451
        CHANNELS 6 Xposition Yposition Zposition Zrotation Xrotation Yrotation
        End Site
        {
          OFFSET -2.6618 -4.2699 12.3931
        }
      }
    }
  }
}
MOTION
Frames:	4
Frame Time:	0.0333333
0 90.174 2.4664 0 0 -0 0 -1.186 -1.5018 0 0 -0 0 9.964 0.2134 0 0 -0 0 13.134 -3.2573 0 0 -0 0 20.686 -1.6905 0 0 -0 0 7.238 -0.1237 0 0 -0 1.7069 20.075 5.0056 0 0 -0 13.6458 -0.047 -4.849 1.66051 0.0835086 5.75766 28.3255 -0.9759 2.2888 -0.0175111 0.895433 15.7816 22.1583 -0.53 10.8316 7.95139e-016 -1.98785e-016 -0 0.786 0.112 2.5817 5.46658e-016 -3.97569e-016 -0 0.3601 -0.878 4.2331 5.96354e-016 0 -0 1.8127 -1.216 2.2227 3.97569e-016 1.98785e-016 9.54166e-015 0.9571 1.114 1.7695 1.49089e-016 -3.97569e-016 -0 4.1246 0.487 4.1451 6.4605e-016 0 3.18055e-015 3.4052 -1.454 2.7682 5.96354e-016 0 3.18055e-015 1.4531 -1.795 1.2713 8.94531e-016 -1.98785e-016 6.36111e-015 5.6954 0.21 2.1184 6.4605e-016 0 3.18055e-015 3.9766 -1.54 2.3863 5.96354e-016 0 3.18055e-015 1.4042 -1.926 1.125 8.94531e-016 -1.98785e-016 6.36111e-015 2.0956 0.66 -0.3894 1.49089e-016 -3.97569e-016 -0 5.0395 -0.09 2.4971 6.4605e-016 0 3.18055e-015 3.7921 -1.552 1.4806 5.96354e-016 0 3.18055e-015 1.4655 -1.808 0.9609 8.94531e-016 -1.98785e-016 6.36111e-015 4.9141 -1.269 0.3591 6.4605e-016 0 3.18055e-015 3.1477 -1.685 0.8462 5.96354e-016 0 3.18055e-015 0.8055 -1.585 0.7955 8.94531e-016 -1.98785e-016 6.36111e-015 -1.7069 20.075 5.0056 0 0 -0 -13.6458 -0.047 -4.849 -1.4496 0.0636048 -5.0245 -28.3255 -0.9759 2.2888 -1.74811 1.20616 -16.8394 -22.1583 -0.53 10.8316 -1.19271e-015 1.98785e-016 -3.18055e-015 -0.786 0.112 2.5817 -3.97569e-016 1.98785e-016 -3.18055e-015 -0.3601 -0.878 4.2331 -2.98177e-016 1.98785e-016 -3.18055e-015 -1.8127 -1.216 2.2227 -2.98177e-016 3.97569e-016 -0 -0.9571 1.114 1.7695 4.96962e-016 0 -6.36111e-015 -4.1246 0.487 4.1451 -9.93923e-017 3.97569e-016 -0 -3.4052 -1.454 2.7682 -8.94531e-016 5.96354e-016 -0 -1.4531 -1.795 1.2713 -3.97569e-016 3.97569e-016 -0 -5.6954 0.21 2.1184 -9.93923e-017 3.97569e-016 -0 -3.9766 -1.54 2.3863 -8.94531e-016 5.96354e-016 -0 -1.4042 -1.926 1.125 -3.97569e-016 3.97569e-016 -0 -2.0956 0.66 -0.3894 4.96962e-016 0 -6.36111e-015 -5.0395 -0.09 2.4971 -9.93923e-017 3.97569e-016 -0 -3.7921 -1.552 1.4806 -8.94531e-016 5.96354e-016 -0 -1.4655 -1.808 0.9609 -3.97569e-016 3.97569e-016 -0 -4.9141 -1.269 0.3592 -9.93923e-017 3.97569e-016 -0 -3.1477 -1.685 0.8462 -8.94531e-016 5.96354e-016 -0 -0.8055 -1.585 0.7955 -3.97569e-016 3.97569e-016 -0 8.367 -8.2066 0.5982 -4.66115 -1.03232 0.120763 2.1923 -43.463 -0.4932 0.00990601 1.55097 0.177175 0.7333 -45.8593 -2.6451 4.65196 -0.54114 -0.255042 -8.367 -8.2066 0.5982 4.66115 -1.03222 -0.120763 -2.1923 -43.463 -0.4931 -0.00990459 1.5509 -0.177176 -0.7333 -45.8593 -2.6451 -4.65196 -0.541171 0.255041 
-0.493438 69.4814 -0.715103 33.3344 -33.2878 0.000782197 0 -1.186 -1.5018 -0.049773 0.226359 -0.257665 7.10543e-015 9.964 0.2134 -0.0985473 0.452932 -0.515136 0 13.134 -3.2573 -0.0985502 0.452942 -0.515141 7.10543e-015 20.686 -1.6905 4.81366 -0.0282582 0.00653397 0 7.238 -0.1237 3.33288 0.0442953 -0.00701032 1.7069 20.075 5.0056 11.886 -2.99878 -19.2866 13.6458 -0.047 -4.849 0.86371 -32.6549 -9.89054 28.3255 -0.9759 2.2888 -5.40002 4.64968 7.95904 22.1583 -0.53 10.8316 -2.378 0.941739 -0.0296283 0.786 0.112 2.5817 6.36111e-015 -3.18055e-015 6.36111e-015 0.3601 -0.878 4.2331 3.18055e-015 -3.18055e-015 9.54166e-015 1.8127 -1.216 2.2227 6.36111e-015 -3.18055e-015 9.54166e-015 0.9571 1.114 1.7695 9.54166e-015 -3.18055e-015 1.59028e-015 4.1246 0.487 4.1451 -0 0 1.27222e-014 3.4052 -1.454 2.7682 6.36111e-015 -3.18055e-015 3.18055e-015 1.4531 -1.795 1.2713 -7.94503e-031 3.18055e-015 1.43125e-014 5.6954 0.21 2.1184 -0 0 1.27222e-014 3.9766 -1.54 2.3863 6.36111e-015 -3.18055e-015 3.18055e-015 1.4042 -1.926 1.125 -7.94503e-031 3.18055e-015 1.43125e-014 2.0956 0.66 -0.3894 9.54166e-015 -3.18055e-015 1.59028e-015 5.0395 -0.09 2.4971 -0 0 1.27222e-014 3.7921 -1.552 1.4806 6.36111e-015 -3.18055e-015 3.18055e-015 1.4655 -1.808 0.9609 -7.94503e-031 3.18055e-015 1.43125e-014 4.9141 -1.269 0.3591 -0 0 1.27222e-014 3.1477 -1.685 0.8462 6.36111e-015 -3.18055e-015 3.18055e-015 0.8055 -1.585 0.7955 -7.94503e-031 3.18055e-015 1.43125e-014 -1.7069 20.075 5.0056 -11.7849 0.310993 -3.22612 -13.6458 -0.047 -4.849 -20.9399 -7.77341 16.1487 -28.3255 -0.9759 2.2888 -1.48652 0.794223 -6.73682 -22.1583 -0.53 10.8316 2.40402 0.965705 0.0438846 -0.786 0.112 2.5817 2.38542e-015 1.27222e-014 3.18055e-015 -0.3601 -0.878 4.2331 7.95139e-016 3.18055e-015 6.36111e-015 -1.8127 -1.216 2.2227 7.95139e-016 9.54166e-015 1.59028e-015 -0.9571 1.114 1.7695 2.38542e-015 1.27222e-014 -0 -4.1246 0.487 4.1451 7.95139e-016 6.36111e-015 9.54166e-015 -3.4052 -1.454 2.7682 1.59028e-015 -3.18055e-015 4.77083e-015 -1.4531 -1.795 1.2713 1.59028e-015 6.36111e-015 4.77083e-015 -5.6954 0.21 2.1184 7.95139e-016 6.36111e-015 9.54166e-015 -3.9766 -1.54 2.3863 1.59028e-015 -3.18055e-015 4.77083e-015 -1.4042 -1.926 1.125 1.59028e-015 6.36111e-015 4.77083e-015 -2.0956 0.66 -0.3894 2.38542e-015 1.27222e-014 -0 -5.0395 -0.09 2.4971 7.95139e-016 6.36111e-015 9.54166e-015 -3.7921 -1.552 1.4806 1.59028e-015 -3.18055e-015 4.77083e-015 -1.4655 -1.808 0.9609 1.59028e-015 6.36111e-015 4.77083e-015 -4.9141 -1.269 0.3592 7.95139e-016 6.36111e-015 9.54166e-015 -3.1477 -1.685 0.8462 1.59028e-015 -3.18055e-015 4.77083e-015 -0.8055 -1.585 0.7955 1.59028e-015 6.36111e-015 4.77083e-015 8.367 -8.2066 0.5982 -6.06407 -46.4172 2.58921 2.1923 -43.463 -0.4932 -4.29439 49.9969 8.29938 0.7333 -45.8593 -2.6451 5.10815 2.81304 -0.134282 -8.367 -8.2066 0.5982 9.26297 -9.01511 1.62609 -2.1923 -43.463 -0.4931 -3.85559 39.6131 5.83326 -0.7333 -45.8593 -2.6451 -4.53436 6.74798 0.552914 
3.9292 45.7504 -2.12099 66.671 -66.5756 0.00328832 0 -1.186 -1.5018 -0.0934214 0.451696 -0.516146 0 9.964 0.2134 -0.182812 0.904203 -1.0316 0 13.134 -3.2573 -0.182804 0.904188 -1.0316 -7.10543e-015 20.686 -1.6905 9.62743 -0.0565579 0.0130257 0 7.238 -0.1237 6.66577 0.088574 -0.0140165 1.7069 20.075 5.0056 21.9028 -4.96701 -38.6904 13.6458 -0.047 -4.849 -29.7459 -55.4481 -46.2779 28.3255 -0.9759 2.2888 -9.92098 8.10908 0.0739551 22.1583 -0.53 10.8316 -4.75654 1.88369 -0.0202642 0.786 0.112 2.5817 3.97252e-031 3.18055e-015 -7.15625e-015 0.3601 -0.878 4.2331 -1.40414e-006 4.17959e-007 -8.28947e-007 1.8127 -1.216 2.2227 3.18055e-015 6.36111e-015 -2.38542e-015 0.9571 1.114 1.7695 3.97252e-031 3.18055e-015 -7.15625e-015 4.1246 0.487 4.1451 -1.59028e-015 0 7.95139e-016 3.4052 -1.454 2.7682 -1.40414e-006 4.17959e-007 -8.28947e-007 1.4531 -1.795 1.2713 -1.59028e-015 -3.18055e-015 3.97569e-015 5.6954 0.21 2.1184 -1.59028e-015 0 7.95139e-016 3.9766 -1.54 2.3863 -1.40414e-006 4.17959e-007 -8.28947e-007 1.4042 -1.926 1.125 -1.59028e-015 -3.18055e-015 3.97569e-015 2.0956 0.66 -0.3894 3.97252e-031 3.18055e-015 -7.15625e-015 5.0395 -0.09 2.4971 -1.59028e-015 0 7.95139e-016 3.7921 -1.552 1.4806 -1.40414e-006 4.17959e-007 -8.28947e-007 1.4655 -1.808 0.9609 -1.59028e-015 -3.18055e-015 3.97569e-015 4.9141 -1.269 0.3591 -1.59028e-015 0 7.95139e-016 3.1477 -1.685 0.8462 -1.40414e-006 4.17959e-007 -8.28947e-007 0.8055 -1.585 0.7955 -1.59028e-015 -3.18055e-015 3.97569e-015 -1.7069 20.075 5.0056 -23.5349 0.619113 -6.45255 -13.6458 -0.047 -4.849 -35.218 -12.4689 38.1726 -28.3255 -0.9759 2.2888 -1.16474 0.348752 3.36293 -22.1583 -0.53 10.8316 4.80832 1.9324 0.0472228 -0.786 0.112 2.5817 -1.06998e-006 3.14267e-006 2.13747e-007 -0.3601 -0.878 4.2331 3.18055e-015 -3.18055e-015 9.54166e-015 -1.8127 -1.216 2.2227 -1.47323e-006 3.05933e-006 3.25609e-007 -0.9571 1.114 1.7695 -1.59028e-015 0 3.18055e-015 -4.1246 0.487 4.1451 -1.06998e-006 3.14267e-006 2.13747e-007 -3.4052 -1.454 2.7682 1.59028e-015 0 1.27222e-014 -1.4531 -1.795 1.2713 -1.47323e-006 3.05933e-006 3.25609e-007 -5.6954 0.21 2.1184 -1.06998e-006 3.14267e-006 2.13747e-007 -3.9766 -1.54 2.3863 1.59028e-015 0 1.27222e-014 -1.4042 -1.926 1.125 -1.47323e-006 3.05933e-006 3.25609e-007 -2.0956 0.66 -0.3894 -1.59028e-015 0 3.18055e-015 -5.0395 -0.09 2.4971 -1.06998e-006 3.14267e-006 2.13747e-007 -3.7921 -1.552 1.4806 1.59028e-015 0 1.27222e-014 -1.4655 -1.808 0.9609 -1.47323e-006 3.05933e-006 3.25609e-007 -4.9141 -1.269 0.3592 -1.06998e-006 3.14267e-006 2.13747e-007 -3.1477 -1.685 0.8462 1.59028e-015 0 1.27222e-014 -0.8055 -1.585 0.7955 -1.47323e-006 3.05933e-006 3.25609e-007 8.367 -8.2066 0.5982 63.6346 -86.0312 74.6811 2.1923 -43.463 -0.4932 -115.711 81.1672 118.212 0.7333 -45.8593 -2.6451 4.85493 8.48226 1.38417 -8.367 -8.2066 0.5982 15.3046 -19.0383 3.92272 -2.1923 -43.463 -0.4931 -54.1007 76.4568 54.1135 -0.7333 -45.8593 -2.6451 -4.44683 11.7372 0.726767 
10.0304 30.981 -1.49513 -108.473 -89.9945 161.525 0 -1.186 -1.5018 -0.121129 0.648497 -0.697737 0 9.964 0.2134 -0.23432 1.29836 -1.39423 0 13.134 -3.2573 -0.234324 1.29837 -1.3942 0 20.686 -1.6905 12.9973 0.000567138 -0.000163578 0 7.238 -0.1237 8.99856 -1.33398e-005 1.93886e-006 1.7069 20.075 5.0056 28.0871 -5.45073 -52.1959 13.6458 -0.047 -4.849 -68.4504 -53.739 -84.2229 28.3255 -0.9759 2.2888 -12.6321 10.2732 -5.54506 22.1583 -0.53 10.8316 -6.5122 2.57104 0.0273 0.786 0.112 2.5817 7.95139e-016 -6.36111e-015 4.96962e-015 0.3601 -0.878 4.2331 -1.59028e-015 0 4.17448e-015 1.8127 -1.216 2.2227 -1.76556e-031 3.18055e-015 3.18055e-015 0.9571 1.114 1.7695 1.19271e-015 -6.36111e-015 3.97569e-016 4.1246 0.487 4.1451 -1.98785e-016 3.18055e-015 6.55989e-015 3.4052 -1.454 2.7682 -2.38542e-015 -1.27222e-014 5.1684e-015 1.4531 -1.795 1.2713 5.96354e-016 3.18055e-015 2.5842e-015 5.6954 0.21 2.1184 -1.98785e-016 3.18055e-015 6.55989e-015 3.9766 -1.54 2.3863 -2.38542e-015 -1.27222e-014 5.1684e-015 1.4042 -1.926 1.125 5.96354e-016 3.18055e-015 2.5842e-015 2.0956 0.66 -0.3894 1.19271e-015 -6.36111e-015 3.97569e-016 5.0395 -0.09 2.4971 -1.98785e-016 3.18055e-015 6.55989e-015 3.7921 -1.552 1.4806 -2.38542e-015 -1.27222e-014 5.1684e-015 1.4655 -1.808 0.9609 5.96354e-016 3.18055e-015 2.5842e-015 4.9141 -1.269 0.3591 -1.98785e-016 3.18055e-015 6.55989e-015 3.1477 -1.685 0.8462 -2.38542e-015 -1.27222e-014 5.1684e-015 0.8055 -1.585 0.7955 5.96354e-016 3.18055e-015 2.5842e-015 -1.7069 20.075 5.0056 -31.7393 0.831483 -8.71133 -13.6458 -0.047 -4.849 -43.2818 -12.4968 53.7713 -28.3255 -0.9759 2.2888 -0.900113 0.0208802 10.4315 -22.1583 -0.53 10.8316 6.49224 2.60875 0.025405 -0.786 0.112 2.5817 -1.59028e-015 1.59028e-015 -0 -0.3601 -0.878 4.2331 -4.67405e-007 7.27039e-007 1.67244e-006 -1.8127 -1.216 2.2227 -1.8176e-007 -1.16851e-007 -1.6414e-006 -0.9571 1.114 1.7695 -1.59028e-015 -1.59028e-015 -0 -4.1246 0.487 4.1451 -1.59028e-015 3.18055e-015 9.54166e-015 -3.4052 -1.454 2.7682 -4.67405e-007 7.27039e-007 1.67244e-006 -1.4531 -1.795 1.2713 -1.8176e-007 -1.16851e-007 -1.6414e-006 -5.6954 0.21 2.1184 -1.59028e-015 3.18055e-015 9.54166e-015 -3.9766 -1.54 2.3863 -4.67405e-007 7.27039e-007 1.67244e-006 -1.4042 -1.926 1.125 -1.8176e-007 -1.16851e-007 -1.6414e-006 -2.0956 0.66 -0.3894 -1.59028e-015 -1.59028e-015 -0 -5.0395 -0.09 2.4971 -1.59028e-015 3.18055e-015 9.54166e-015 -3.7921 -1.552 1.4806 -4.67405e-007 7.27039e-007 1.67244e-006 -1.4655 -1.808 0.9609 -1.8176e-007 -1.16851e-007 -1.6414e-006 -4.9141 -1.269 0.3592 -1.59028e-015 3.18055e-015 9.54166e-015 -3.1477 -1.685 0.8462 -4.67405e-007 7.27039e-007 1.67244e-006 -0.8055 -1.585 0.7955 -1.8176e-007 -1.16851e-007 -1.6414e-006 8.367 -8.2066 0.5982 157.877 -60.8476 170.765 2.1923 -43.463 -0.4932 -165.103 51.927 165.551 0.7333 -45.8593 -2.6451 5.16097 10.4677 2.2192 -8.367 -8.2066 0.5982 20.8113 -26.1089 6.03639 -2.1923 -43.463 -0.4931 -143.655 64.014 141.554 -0.7333 -45.8593 -2.6451 -3.96284 16.6411 -0.662517 
